HIERARCHY
ROOT hip
{
	OFFSET 0.000000 0.000000 0.000000
	CHANNELS 6 Xposition Yposition Zposition Zrotation Yrotation Xrotation 
	JOINT lhipjoint
	{
		OFFSET 0.000000 0.000000 0.000000
		CHANNELS 3 Zrotation Yrotation Xrotation
		JOINT lfemur
		{
			OFFSET 1.363060 -1.794630 0.839290
			CHANNELS 3 Zrotation Yrotation Xrotation
			JOINT ltibia
			{
				OFFSET 2.448110 -6.726130 0.000000
				CHANNELS 3 Zrotation Yrotation Xrotation
				JOINT lfoot
				{
					OFFSET 2.562200 -7.039590 0.000000
					CHANNELS 3 Zrotation Yrotation Xrotation
					JOINT ltoes
					{
						OFFSET 0.157640 -0.433110 2.322550
						CHANNELS 3 Zrotation Yrotation Xrotation
						End Site
						{
							OFFSET 0.000000 0.000000 0.000000
						}
					}
				}
			}
		}
	}
	JOINT rhipjoint
	{
		OFFSET 0.000000 0.000000 0.000000
		CHANNELS 3 Zrotation Yrotation Xrotation
		JOINT rfemur
		{
			OFFSET -1.305520 -1.794630 0.839290
			CHANNELS 3 Zrotation Yrotation Xrotation
			JOINT rtibia
			{
				OFFSET -2.542530 -6.985550 0.000000
				CHANNELS 3 Zrotation Yrotation Xrotation
				JOINT rfoot
				{
					OFFSET -2.568260 -7.056230 0.000000
					CHANNELS 3 Zrotation Yrotation Xrotation
					JOINT rtoes
					{
						OFFSET -0.164730 -0.452590 2.363150
						CHANNELS 3 Zrotation Yrotation Xrotation
						End Site
						{
							OFFSET 0.000000 0.000000 0.000000
						}
					}
				}
			}
		}
	}
	JOINT lowerback
	{
		OFFSET 0.000000 0.000000 0.000000
		CHANNELS 3 Zrotation Yrotation Xrotation
		JOINT upperback
		{
			OFFSET 0.028270 2.035590 -0.193380
			CHANNELS 3 Zrotation Yrotation Xrotation
			JOINT thorax
			{
				OFFSET 0.056720 2.048850 -0.042750
				CHANNELS 3 Zrotation Yrotation Xrotation
				JOINT lowerneck
				{
					OFFSET 0.000000 0.000000 0.000000
					CHANNELS 3 Zrotation Yrotation Xrotation
					JOINT upperneck
					{
						OFFSET -0.054170 1.746240 0.172020
						CHANNELS 3 Zrotation Yrotation Xrotation
						JOINT head
						{
							OFFSET 0.104070 1.761360 -0.123970
							CHANNELS 3 Zrotation Yrotation Xrotation
							End Site
							{
								OFFSET 0.000000 0.000000 0.000000
							}
						}
					}
				}
				JOINT lclavicle
				{
					OFFSET 0.000000 0.000000 0.000000
					CHANNELS 3 Zrotation Yrotation Xrotation
					JOINT lhumerus
					{
						OFFSET 3.362410 1.200890 -0.311210
						CHANNELS 3 Zrotation Yrotation Xrotation
						JOINT lradius
						{
							OFFSET 4.983000 -0.000000 -0.000000
							CHANNELS 3 Zrotation Yrotation Xrotation
							JOINT lwrist
							{
								OFFSET 3.483560 -0.000000 -0.000000
								CHANNELS 3 Zrotation Yrotation Xrotation
								JOINT lhand
								{
									OFFSET 0.000000 0.000000 0.000000
									CHANNELS 3 Zrotation Yrotation Xrotation
									JOINT lfingers
									{
										OFFSET 0.715260 -0.000000 -0.000000
										CHANNELS 3 Zrotation Yrotation Xrotation
										End Site
										{
											OFFSET 0.000000 0.000000 0.000000
										}
									}
								}
								JOINT lthumb
								{
									OFFSET 0.000000 0.000000 0.000000
									CHANNELS 3 Zrotation Yrotation Xrotation
									End Site
									{
										OFFSET 0.000000 0.000000 0.000000
									}
								}
							}
						}
					}
				}
				JOINT rclavicle
				{
					OFFSET 0.000000 0.000000 0.000000
					CHANNELS 3 Zrotation Yrotation Xrotation
					JOINT rhumerus
					{
						OFFSET -3.136600 1.374050 -0.404650
						CHANNELS 3 Zrotation Yrotation Xrotation
						JOINT rradius
						{
							OFFSET -5.241900 -0.000000 -0.000000
							CHANNELS 3 Zrotation Yrotation Xrotation
							JOINT rwrist
							{
								OFFSET -3.444170 -0.000000 -0.000000
								CHANNELS 3 Zrotation Yrotation Xrotation
								JOINT rhand
								{
									OFFSET 0.000000 0.000000 0.000000
									CHANNELS 3 Zrotation Yrotation Xrotation
									JOINT rfingers
									{
										OFFSET -0.622530 -0.000000 -0.000000
										CHANNELS 3 Zrotation Yrotation Xrotation
										End Site
										{
											OFFSET 0.000000 0.000000 0.000000
										}
									}
								}
								JOINT rthumb
								{
									OFFSET 0.000000 0.000000 0.000000
									CHANNELS 3 Zrotation Yrotation Xrotation
									End Site
									{
										OFFSET 0.000000 0.000000 0.000000
									}
								}
							}
						}
					}
				}
			}
		}
	}
}
MOTION
Frames: 8
Frame Time: 0.008333
23.525104 17.070730 0.252700 -4.935667 87.387370 -7.490826 -5.351649 -3.286716 -0.910919 -13.456323 3.926468 -24.272563 3.831918 10.175202 30.039492 0.121189 -1.455834 2.230656 0.099200 -2.030700 -5.590500 3.108294 6.049513 -4.359307 7.880622 -7.224659 2.371170 -8.936374 -19.436115 55.252637 -1.190887 10.579940 14.792441 -0.976800 6.291700 -17.633100 -1.101430 1.156366 13.070130 0.393636 2.961824 -2.241262 -5.184525 1.246665 10.144956 -1.907095 -1.776282 -10.393682 1.050719 -0.285077 29.616146 -1.040000 0.959600 8.011300 -4.607841 -2.496222 3.385802 -76.124487 -15.366145 24.280234 9.535832 -21.461776 -2.392209 0.473617 1.165894 30.695084 18.592326 -5.942152 -2.456100 -7.125000 0.000000 0.000000 -5.848400 22.346700 3.201800 5.715921 2.988203 4.239072 74.605824 8.183963 13.167256 -4.210174 23.827462 -1.416912 0.011108 -1.144913 14.401536 -5.449036 5.732694 -0.686700 7.125000 0.000000 0.000000 15.334800 -23.147700 8.366000 
23.610114 17.093572 0.233530 -5.209374 87.392959 -7.535164 -5.302043 -3.275146 -0.953071 -13.600866 4.031947 -24.063153 3.778344 10.137602 29.787916 0.122782 -1.615991 2.021998 0.104200 -2.081200 -5.730200 3.104044 5.918788 -4.276003 7.792730 -6.962580 0.734909 -9.353843 -19.552801 56.542302 -1.102837 10.487858 13.852093 -0.823900 5.791300 -16.180200 -1.042774 1.118561 13.260174 0.395244 2.914800 -2.207226 -5.264615 1.250849 10.178926 -1.869676 -1.737335 -10.313545 1.063265 -0.259354 29.458173 -1.042200 0.968200 7.929100 -4.647979 -2.460022 3.411299 -75.626966 -15.893065 25.744662 10.118474 -22.079488 -2.531289 0.450151 1.204905 29.321783 18.779049 -5.832520 -2.456400 -7.125000 0.000000 0.000000 -5.705400 22.421700 3.113000 5.707293 2.963802 4.238718 74.548307 8.517852 12.316811 -3.719428 23.229455 -1.343213 0.005548 -1.104003 15.197233 -5.397569 5.697773 -0.672700 7.125000 0.000000 0.000000 15.380400 -23.223300 8.364900 
23.692526 17.115071 0.215167 -5.820066 87.381058 -7.902344 -5.254038 -3.256561 -0.996202 -13.715238 4.149297 -23.894361 3.728084 10.109332 29.562020 0.124721 -1.832724 1.817846 0.109200 -2.130600 -5.866700 3.098131 5.781556 -4.188448 7.768160 -6.672900 -0.900383 -9.717216 -19.613890 57.634541 -1.035866 10.435322 13.119042 -0.706200 5.370900 -14.969600 -0.984083 1.071449 13.442961 0.401902 2.858912 -2.167358 -5.317022 1.250666 10.244768 -1.826328 -1.693142 -10.291469 1.056979 -0.218118 29.292134 -1.051800 0.981900 7.859600 -4.688298 -2.412208 3.434108 -75.156122 -16.468823 27.030049 10.695331 -22.677191 -2.673783 0.425213 1.241435 28.171253 18.950723 -5.656660 -2.430800 -7.125000 0.000000 0.000000 -5.571200 22.569900 3.020100 5.707354 2.936021 4.240269 74.449670 8.911398 11.521859 -3.268918 22.661680 -1.276222 0.000468 -1.061833 15.995085 -5.338960 5.692664 -0.660800 7.125000 0.000000 0.000000 15.428900 -23.271000 8.375600 
23.771534 17.134420 0.197341 -7.127551 87.398629 -8.963498 -5.214682 -3.226287 -1.035118 -13.786945 4.228549 -23.789686 3.692952 10.108049 29.429038 0.126741 -2.057221 1.623484 0.116300 -2.198300 -6.054000 3.088393 5.641478 -4.095358 7.801338 -6.422963 -2.533397 -10.031957 -19.630780 58.559077 -0.985170 10.371036 12.537807 -0.581400 4.882600 -13.574000 -0.879408 1.007127 13.652266 0.413978 2.776619 -2.132962 -5.381543 1.243568 10.274327 -1.777680 -1.650578 -10.261573 1.024345 -0.165955 29.165388 -1.068400 1.001000 7.807000 -4.731208 -2.367878 3.453690 -74.648700 -16.979826 28.339240 11.332697 -23.328265 -2.834316 0.395025 1.276037 26.984306 19.069392 -5.439174 -2.381700 -7.125000 0.000000 0.000000 -5.474500 22.768300 2.942300 5.712180 2.922602 4.242310 74.321534 9.265468 10.841563 -2.860841 22.136991 -1.217741 -0.011036 -1.021984 16.702150 -5.376273 5.732498 -0.664100 7.125000 0.000000 0.000000 15.409200 -23.269500 8.364700 
23.848302 17.150544 0.180410 -8.495172 87.392167 -10.070419 -5.172868 -3.192333 -1.075079 -13.845932 4.323213 -23.733845 3.664485 10.116810 29.335805 0.128468 -2.290642 1.443727 0.115000 -2.186000 -6.020000 3.087119 5.493247 -3.993740 7.863563 -6.147656 -4.163122 -10.302380 -19.611224 59.329846 -0.931378 10.426337 11.942800 -0.499600 4.531500 -12.576800 -0.784453 0.951987 13.864548 0.427168 2.707086 -2.099899 -5.415590 1.240812 10.291523 -1.752530 -1.614503 -10.223386 1.009011 -0.128774 29.030538 -1.076500 1.012100 7.749600 -4.771120 -2.328144 3.472951 -74.186956 -17.526072 29.435896 11.914316 -23.910956 -2.990798 0.372802 1.310964 26.069112 19.311307 -5.271545 -2.366800 -7.125000 0.000000 0.000000 -5.287600 22.903500 2.824500 5.726498 2.910873 4.245324 74.149030 9.582606 10.335275 -2.539795 21.708298 -1.172657 -0.026982 -0.984636 17.285020 -5.484490 5.843917 -0.682700 7.125000 0.000000 0.000000 15.335200 -23.193100 8.349500 
23.922562 17.166489 0.163570 -10.446199 87.424483 -11.758684 -5.129753 -3.150173 -1.115634 -13.886132 4.394297 -23.700692 3.639258 10.133148 29.264284 0.130307 -2.555907 1.284766 0.111300 -2.151500 -5.924600 3.089886 5.340990 -3.885153 7.973675 -5.878906 -5.803779 -10.536673 -19.559607 59.973487 -0.869919 10.592695 11.251952 -0.469400 4.394300 -12.188700 -0.664134 0.877424 14.083437 0.447605 2.613925 -2.066384 -5.435244 1.228657 10.305732 -1.742562 -1.583345 -10.173414 0.991480 -0.097634 28.891193 -1.082500 1.018500 7.687600 -4.811153 -2.286830 3.491747 -73.716032 -18.058374 30.550243 12.549025 -24.542482 -3.164764 0.348027 1.343305 25.047965 19.481937 -5.120878 -2.346200 -7.125000 0.000000 0.000000 -5.154100 23.027400 2.738000 5.744125 2.898029 4.249595 73.958264 9.944458 9.771303 -2.214919 21.262261 -1.128223 -0.047441 -0.940714 17.885894 -5.628785 6.053781 -0.714700 7.125000 0.000000 0.000000 15.230500 -23.024900 8.349600 
23.994225 17.181090 0.147625 -12.583045 87.449277 -13.624964 -5.079410 -3.106723 -1.161417 -13.924452 4.473905 -23.681633 3.614233 10.150099 29.194874 0.132139 -2.802533 1.156535 0.109900 -2.137200 -5.884900 3.106838 5.181220 -3.766294 8.090529 -5.602079 -7.476492 -10.742870 -19.484541 60.522573 -0.802618 10.876343 10.496830 -0.490100 4.488800 -12.456200 -0.536166 0.798384 14.312815 0.467598 2.518411 -2.028317 -5.452311 1.217512 10.334552 -1.739421 -1.557438 -10.150011 0.956757 -0.066953 28.750333 -1.091800 1.021600 7.631600 -4.855687 -2.242865 3.509582 -73.240475 -18.585355 31.553318 13.247943 -25.229871 -3.365575 0.318143 1.376205 24.024156 19.652678 -4.917227 -2.306000 -7.125000 0.000000 0.000000 -5.017800 23.208100 2.644200 5.768451 2.884047 4.255931 73.726128 10.322949 9.361788 -1.933392 20.874150 -1.091320 -0.076771 -0.892663 18.399956 -5.876757 6.409325 -0.774400 7.125000 0.000000 0.000000 15.046100 -22.713700 8.352900 
24.063021 17.196587 0.131680 -14.264016 87.507442 -15.038082 -5.022811 -3.068948 -1.213391 -14.018611 4.597242 -23.685954 3.591394 10.166027 29.131612 0.133180 -3.121350 1.064672 0.111500 -2.153400 -5.929800 3.143520 5.012747 -3.635693 8.163892 -5.312088 -9.164425 -10.915803 -19.390512 60.969159 -0.732633 11.213947 9.684126 -0.564500 4.812300 -13.374000 -0.445625 0.705044 14.565018 0.489381 2.408845 -1.987282 -5.434906 1.193729 10.361199 -1.761860 -1.531616 -10.105018 0.920993 -0.040263 28.555266 -1.099600 1.018700 7.551000 -4.900141 -2.204085 3.527230 -72.806543 -19.050692 32.385286 14.060459 -26.032374 -3.611369 0.292487 1.404098 23.118721 19.731787 -4.776688 -2.274500 -7.125000 0.000000 0.000000 -4.951100 23.330200 2.594800 5.801489 2.865516 4.266065 73.460036 10.724325 9.065952 -1.737154 20.577768 -1.066057 -0.102674 -0.851907 18.725380 -6.115251 6.744235 -0.834000 7.125000 0.000000 0.000000 14.869600 -22.415100 8.353600 
